<?xml version="1.0" standalone="no"?>
<!DOCTYPE svg PUBLIC "-//W3C//DTD SVG 20010904//EN"
 "http://www.w3.org/TR/2001/REC-SVG-20010904/DTD/svg10.dtd">
<svg version="1.0" xmlns="http://www.w3.org/2000/svg"
 width="100.000000pt" height="100.000000pt" viewBox="0 0 100.000000 100.000000"
 preserveAspectRatio="xMidYMid meet">
<metadata>
Created by potrace 1.11, written by Peter Selinger 2001-2013
</metadata>
<g transform="translate(0.000000,100.000000) scale(0.100000,-0.100000)"
fill="#000000" stroke="none">
<path d="M0 500 l0 -500 500 0 500 0 0 500 0 500 -500 0 -500 0 0 -500z m440
300 c0 -6 -65 -10 -175 -10 l-175 0 0 -180 c0 -113 -4 -180 -10 -180 -6 0 -10
70 -10 190 l0 190 185 0 c117 0 185 -4 185 -10z m258 -133 c4 -34 -13 -57 -42
-57 -29 0 -46 18 -46 50 0 36 8 41 50 38 30 -3 35 -7 38 -31z m-226 -32 c-4
-38 -3 -37 -54 -39 l-43 -1 0 -133 0 -132 -32 0 -33 0 0 134 0 133 -37 0 c-62
1 -63 1 -63 38 l0 36 133 -3 132 -3 -3 -30z m218 -145 l0 -90 35 0 c33 0 35
-2 35 -35 l0 -35 -104 0 c-110 0 -121 5 -109 49 4 17 13 21 44 21 l39 0 0 55
0 55 -39 0 c-32 0 -39 4 -43 23 -8 42 0 47 73 47 l69 0 0 -90z m210 -120 l0
-180 -175 0 c-110 0 -175 4 -175 10 0 6 62 10 165 10 l165 0 0 170 c0 107 4
170 10 170 6 0 10 -67 10 -180z"/>
</g>
</svg>
